<mxfile host="app.diagrams.net" modified="2023-10-13T18:21:54.742Z" agent="Mozilla/5.0 (Windows NT 10.0; Win64; x64) AppleWebKit/537.36 (KHTML, like Gecko) Chrome/117.0.0.0 Safari/537.36" etag="omfLTrvtQ-14G25NxbjG" version="22.0.4" type="device" pages="5">
  <diagram name="Página-1" id="VpXt-nNlxmUwJpirEb93">
    <mxGraphModel dx="1105" dy="562" grid="1" gridSize="10" guides="1" tooltips="1" connect="1" arrows="1" fold="1" page="1" pageScale="1" pageWidth="827" pageHeight="1169" math="0" shadow="0">
      <root>
        <mxCell id="0" />
        <mxCell id="1" parent="0" />
        <mxCell id="N_akkY4LLrRZQGd5OJMF-3" style="edgeStyle=orthogonalEdgeStyle;rounded=0;orthogonalLoop=1;jettySize=auto;html=1;entryX=0;entryY=0.5;entryDx=0;entryDy=0;fillColor=#dae8fc;strokeColor=#000000;" edge="1" parent="1" source="N_akkY4LLrRZQGd5OJMF-1" target="N_akkY4LLrRZQGd5OJMF-2">
          <mxGeometry relative="1" as="geometry" />
        </mxCell>
        <mxCell id="N_akkY4LLrRZQGd5OJMF-1" value="Inicio" style="ellipse;whiteSpace=wrap;html=1;fillColor=#dae8fc;strokeColor=#6c8ebf;" vertex="1" parent="1">
          <mxGeometry x="145" y="90" width="120" height="80" as="geometry" />
        </mxCell>
        <mxCell id="N_akkY4LLrRZQGd5OJMF-5" style="edgeStyle=orthogonalEdgeStyle;rounded=0;orthogonalLoop=1;jettySize=auto;html=1;" edge="1" parent="1" source="N_akkY4LLrRZQGd5OJMF-2" target="N_akkY4LLrRZQGd5OJMF-4">
          <mxGeometry relative="1" as="geometry" />
        </mxCell>
        <mxCell id="N_akkY4LLrRZQGd5OJMF-2" value="Configuração do canal de transmissão" style="ellipse;whiteSpace=wrap;html=1;fillColor=#dae8fc;strokeColor=#6c8ebf;" vertex="1" parent="1">
          <mxGeometry x="325" y="90" width="120" height="80" as="geometry" />
        </mxCell>
        <mxCell id="N_akkY4LLrRZQGd5OJMF-7" style="edgeStyle=orthogonalEdgeStyle;rounded=0;orthogonalLoop=1;jettySize=auto;html=1;entryX=0;entryY=0.5;entryDx=0;entryDy=0;" edge="1" parent="1" source="N_akkY4LLrRZQGd5OJMF-4" target="N_akkY4LLrRZQGd5OJMF-6">
          <mxGeometry relative="1" as="geometry">
            <Array as="points">
              <mxPoint x="475" y="260" />
              <mxPoint x="475" y="260" />
            </Array>
          </mxGeometry>
        </mxCell>
        <mxCell id="N_akkY4LLrRZQGd5OJMF-4" value="Leitura dos botões" style="ellipse;whiteSpace=wrap;html=1;fillColor=#dae8fc;strokeColor=#6c8ebf;" vertex="1" parent="1">
          <mxGeometry x="325" y="220" width="120" height="80" as="geometry" />
        </mxCell>
        <mxCell id="N_akkY4LLrRZQGd5OJMF-8" style="edgeStyle=orthogonalEdgeStyle;rounded=0;orthogonalLoop=1;jettySize=auto;html=1;" edge="1" parent="1" source="N_akkY4LLrRZQGd5OJMF-6" target="N_akkY4LLrRZQGd5OJMF-4">
          <mxGeometry relative="1" as="geometry">
            <Array as="points">
              <mxPoint x="485" y="280" />
              <mxPoint x="485" y="280" />
            </Array>
          </mxGeometry>
        </mxCell>
        <mxCell id="N_akkY4LLrRZQGd5OJMF-11" style="edgeStyle=orthogonalEdgeStyle;rounded=0;orthogonalLoop=1;jettySize=auto;html=1;entryX=0.5;entryY=0;entryDx=0;entryDy=0;" edge="1" parent="1" source="N_akkY4LLrRZQGd5OJMF-6" target="N_akkY4LLrRZQGd5OJMF-10">
          <mxGeometry relative="1" as="geometry" />
        </mxCell>
        <mxCell id="N_akkY4LLrRZQGd5OJMF-6" value="Exibição do canal atual" style="ellipse;whiteSpace=wrap;html=1;fillColor=#dae8fc;strokeColor=#6c8ebf;" vertex="1" parent="1">
          <mxGeometry x="515" y="220" width="120" height="80" as="geometry" />
        </mxCell>
        <mxCell id="N_akkY4LLrRZQGd5OJMF-13" style="edgeStyle=orthogonalEdgeStyle;rounded=0;orthogonalLoop=1;jettySize=auto;html=1;" edge="1" parent="1" source="N_akkY4LLrRZQGd5OJMF-10" target="N_akkY4LLrRZQGd5OJMF-12">
          <mxGeometry relative="1" as="geometry">
            <Array as="points">
              <mxPoint x="485" y="400" />
              <mxPoint x="485" y="400" />
            </Array>
          </mxGeometry>
        </mxCell>
        <mxCell id="N_akkY4LLrRZQGd5OJMF-10" value="Confirmação do canal" style="ellipse;whiteSpace=wrap;html=1;fillColor=#dae8fc;strokeColor=#6c8ebf;" vertex="1" parent="1">
          <mxGeometry x="515" y="360" width="120" height="80" as="geometry" />
        </mxCell>
        <mxCell id="N_akkY4LLrRZQGd5OJMF-15" style="edgeStyle=orthogonalEdgeStyle;rounded=0;orthogonalLoop=1;jettySize=auto;html=1;entryX=0.5;entryY=0;entryDx=0;entryDy=0;curved=1;" edge="1" parent="1" source="N_akkY4LLrRZQGd5OJMF-12" target="N_akkY4LLrRZQGd5OJMF-14">
          <mxGeometry relative="1" as="geometry" />
        </mxCell>
        <mxCell id="N_akkY4LLrRZQGd5OJMF-12" value="Exibição de status de bateria e canal atual" style="ellipse;whiteSpace=wrap;html=1;fillColor=#dae8fc;strokeColor=#6c8ebf;" vertex="1" parent="1">
          <mxGeometry x="325" y="360" width="120" height="80" as="geometry" />
        </mxCell>
        <mxCell id="N_akkY4LLrRZQGd5OJMF-19" style="edgeStyle=orthogonalEdgeStyle;rounded=0;orthogonalLoop=1;jettySize=auto;html=1;curved=1;entryX=0.258;entryY=0.054;entryDx=0;entryDy=0;entryPerimeter=0;" edge="1" parent="1" source="N_akkY4LLrRZQGd5OJMF-14" target="N_akkY4LLrRZQGd5OJMF-16">
          <mxGeometry relative="1" as="geometry">
            <Array as="points">
              <mxPoint x="285" y="580" />
              <mxPoint x="296" y="580" />
            </Array>
          </mxGeometry>
        </mxCell>
        <mxCell id="N_akkY4LLrRZQGd5OJMF-14" value="Leitura dos potenciômetros" style="ellipse;whiteSpace=wrap;html=1;fillColor=#dae8fc;strokeColor=#6c8ebf;" vertex="1" parent="1">
          <mxGeometry x="225" y="490" width="120" height="80" as="geometry" />
        </mxCell>
        <mxCell id="N_akkY4LLrRZQGd5OJMF-20" style="edgeStyle=orthogonalEdgeStyle;rounded=0;orthogonalLoop=1;jettySize=auto;html=1;entryX=0;entryY=0.5;entryDx=0;entryDy=0;" edge="1" parent="1" source="N_akkY4LLrRZQGd5OJMF-16" target="N_akkY4LLrRZQGd5OJMF-17">
          <mxGeometry relative="1" as="geometry" />
        </mxCell>
        <mxCell id="N_akkY4LLrRZQGd5OJMF-16" value="Tratamento dos dados" style="ellipse;whiteSpace=wrap;html=1;fillColor=#dae8fc;strokeColor=#6c8ebf;" vertex="1" parent="1">
          <mxGeometry x="265" y="600" width="120" height="80" as="geometry" />
        </mxCell>
        <mxCell id="N_akkY4LLrRZQGd5OJMF-21" style="edgeStyle=orthogonalEdgeStyle;rounded=0;orthogonalLoop=1;jettySize=auto;html=1;entryX=0.5;entryY=1;entryDx=0;entryDy=0;curved=1;exitX=1;exitY=0;exitDx=0;exitDy=0;" edge="1" parent="1" source="N_akkY4LLrRZQGd5OJMF-17" target="N_akkY4LLrRZQGd5OJMF-18">
          <mxGeometry relative="1" as="geometry">
            <Array as="points">
              <mxPoint x="557" y="600" />
              <mxPoint x="595" y="600" />
            </Array>
          </mxGeometry>
        </mxCell>
        <mxCell id="N_akkY4LLrRZQGd5OJMF-17" value="Alocação dos valores em uma string" style="ellipse;whiteSpace=wrap;html=1;fillColor=#dae8fc;strokeColor=#6c8ebf;" vertex="1" parent="1">
          <mxGeometry x="455" y="600" width="120" height="80" as="geometry" />
        </mxCell>
        <mxCell id="N_akkY4LLrRZQGd5OJMF-22" style="edgeStyle=orthogonalEdgeStyle;rounded=0;orthogonalLoop=1;jettySize=auto;html=1;entryX=0.957;entryY=0.301;entryDx=0;entryDy=0;curved=1;exitX=0;exitY=0.5;exitDx=0;exitDy=0;entryPerimeter=0;" edge="1" parent="1" source="N_akkY4LLrRZQGd5OJMF-18" target="N_akkY4LLrRZQGd5OJMF-14">
          <mxGeometry relative="1" as="geometry">
            <Array as="points">
              <mxPoint x="535" y="500" />
              <mxPoint x="365" y="500" />
              <mxPoint x="365" y="514" />
            </Array>
          </mxGeometry>
        </mxCell>
        <mxCell id="N_akkY4LLrRZQGd5OJMF-18" value="Transmissão da string sem fio" style="ellipse;whiteSpace=wrap;html=1;fillColor=#dae8fc;strokeColor=#6c8ebf;" vertex="1" parent="1">
          <mxGeometry x="535" y="480" width="120" height="80" as="geometry" />
        </mxCell>
        <mxCell id="N_akkY4LLrRZQGd5OJMF-24" style="edgeStyle=orthogonalEdgeStyle;rounded=0;orthogonalLoop=1;jettySize=auto;html=1;entryX=0.5;entryY=1;entryDx=0;entryDy=0;" edge="1" parent="1" source="N_akkY4LLrRZQGd5OJMF-23" target="N_akkY4LLrRZQGd5OJMF-1">
          <mxGeometry relative="1" as="geometry" />
        </mxCell>
        <mxCell id="N_akkY4LLrRZQGd5OJMF-23" value="Reset" style="ellipse;whiteSpace=wrap;html=1;fillColor=#dae8fc;strokeColor=#6c8ebf;" vertex="1" parent="1">
          <mxGeometry x="145" y="220" width="120" height="80" as="geometry" />
        </mxCell>
        <mxCell id="N_akkY4LLrRZQGd5OJMF-25" value="&lt;font style=&quot;font-size: 30px;&quot;&gt;Diagrama fluxo do programa do rádio controle&lt;/font&gt;" style="text;html=1;align=center;verticalAlign=middle;resizable=0;points=[];autosize=1;strokeColor=none;fillColor=none;" vertex="1" parent="1">
          <mxGeometry x="80" y="20" width="640" height="50" as="geometry" />
        </mxCell>
        <mxCell id="N_akkY4LLrRZQGd5OJMF-26" value="Loop infinito" style="text;html=1;align=center;verticalAlign=middle;resizable=0;points=[];autosize=1;strokeColor=none;fillColor=none;" vertex="1" parent="1">
          <mxGeometry x="385" y="555" width="90" height="30" as="geometry" />
        </mxCell>
      </root>
    </mxGraphModel>
  </diagram>
  <diagram name="Cópia do Página-1" id="gJnyfgdpulKBo4Ft67JC">
    <mxGraphModel dx="1167" dy="593" grid="1" gridSize="10" guides="1" tooltips="1" connect="1" arrows="1" fold="1" page="1" pageScale="1" pageWidth="827" pageHeight="1169" math="0" shadow="0">
      <root>
        <mxCell id="YBW0V-wdgdNaUi1uGq_D-0" />
        <mxCell id="YBW0V-wdgdNaUi1uGq_D-1" parent="YBW0V-wdgdNaUi1uGq_D-0" />
        <mxCell id="YBW0V-wdgdNaUi1uGq_D-2" style="edgeStyle=orthogonalEdgeStyle;rounded=0;orthogonalLoop=1;jettySize=auto;html=1;entryX=0;entryY=0.5;entryDx=0;entryDy=0;fillColor=#dae8fc;strokeColor=#000000;" edge="1" parent="YBW0V-wdgdNaUi1uGq_D-1" source="YBW0V-wdgdNaUi1uGq_D-3" target="YBW0V-wdgdNaUi1uGq_D-5">
          <mxGeometry relative="1" as="geometry" />
        </mxCell>
        <mxCell id="YBW0V-wdgdNaUi1uGq_D-3" value="Inicio" style="ellipse;whiteSpace=wrap;html=1;fillColor=#dae8fc;strokeColor=#6c8ebf;" vertex="1" parent="YBW0V-wdgdNaUi1uGq_D-1">
          <mxGeometry x="145" y="90" width="120" height="80" as="geometry" />
        </mxCell>
        <mxCell id="YBW0V-wdgdNaUi1uGq_D-4" style="edgeStyle=orthogonalEdgeStyle;rounded=0;orthogonalLoop=1;jettySize=auto;html=1;" edge="1" parent="YBW0V-wdgdNaUi1uGq_D-1" source="YBW0V-wdgdNaUi1uGq_D-5">
          <mxGeometry relative="1" as="geometry">
            <mxPoint x="385" y="220" as="targetPoint" />
          </mxGeometry>
        </mxCell>
        <mxCell id="YBW0V-wdgdNaUi1uGq_D-5" value="Configuração do canal de transmissão&lt;br&gt;(canal fixo)" style="ellipse;whiteSpace=wrap;html=1;fillColor=#dae8fc;strokeColor=#6c8ebf;" vertex="1" parent="YBW0V-wdgdNaUi1uGq_D-1">
          <mxGeometry x="325" y="90" width="120" height="80" as="geometry" />
        </mxCell>
        <mxCell id="YBW0V-wdgdNaUi1uGq_D-13" style="edgeStyle=orthogonalEdgeStyle;rounded=0;orthogonalLoop=1;jettySize=auto;html=1;entryX=0.5;entryY=0;entryDx=0;entryDy=0;curved=1;" edge="1" parent="YBW0V-wdgdNaUi1uGq_D-1" source="YBW0V-wdgdNaUi1uGq_D-14" target="YBW0V-wdgdNaUi1uGq_D-16">
          <mxGeometry relative="1" as="geometry" />
        </mxCell>
        <mxCell id="YBW0V-wdgdNaUi1uGq_D-14" value="Inicio da recepção dos dados" style="ellipse;whiteSpace=wrap;html=1;fillColor=#dae8fc;strokeColor=#6c8ebf;" vertex="1" parent="YBW0V-wdgdNaUi1uGq_D-1">
          <mxGeometry x="325" y="220" width="120" height="80" as="geometry" />
        </mxCell>
        <mxCell id="YBW0V-wdgdNaUi1uGq_D-15" style="edgeStyle=orthogonalEdgeStyle;rounded=0;orthogonalLoop=1;jettySize=auto;html=1;curved=1;entryX=0.258;entryY=0.054;entryDx=0;entryDy=0;entryPerimeter=0;" edge="1" parent="YBW0V-wdgdNaUi1uGq_D-1" source="YBW0V-wdgdNaUi1uGq_D-16" target="YBW0V-wdgdNaUi1uGq_D-18">
          <mxGeometry relative="1" as="geometry">
            <Array as="points">
              <mxPoint x="290" y="420" />
              <mxPoint x="301" y="420" />
            </Array>
          </mxGeometry>
        </mxCell>
        <mxCell id="YBW0V-wdgdNaUi1uGq_D-16" value="Recepção e tratamento da string recebida" style="ellipse;whiteSpace=wrap;html=1;fillColor=#dae8fc;strokeColor=#6c8ebf;" vertex="1" parent="YBW0V-wdgdNaUi1uGq_D-1">
          <mxGeometry x="230" y="330" width="120" height="80" as="geometry" />
        </mxCell>
        <mxCell id="YBW0V-wdgdNaUi1uGq_D-17" style="edgeStyle=orthogonalEdgeStyle;rounded=0;orthogonalLoop=1;jettySize=auto;html=1;entryX=0.5;entryY=1;entryDx=0;entryDy=0;curved=1;" edge="1" parent="YBW0V-wdgdNaUi1uGq_D-1" source="YBW0V-wdgdNaUi1uGq_D-18" target="YBW0V-wdgdNaUi1uGq_D-20">
          <mxGeometry relative="1" as="geometry" />
        </mxCell>
        <mxCell id="YBW0V-wdgdNaUi1uGq_D-18" value="Atualização da posição dos servo motores" style="ellipse;whiteSpace=wrap;html=1;fillColor=#dae8fc;strokeColor=#6c8ebf;" vertex="1" parent="YBW0V-wdgdNaUi1uGq_D-1">
          <mxGeometry x="270" y="440" width="120" height="80" as="geometry" />
        </mxCell>
        <mxCell id="YBW0V-wdgdNaUi1uGq_D-19" style="edgeStyle=orthogonalEdgeStyle;rounded=0;orthogonalLoop=1;jettySize=auto;html=1;curved=1;exitX=0;exitY=0.5;exitDx=0;exitDy=0;" edge="1" parent="YBW0V-wdgdNaUi1uGq_D-1" source="YBW0V-wdgdNaUi1uGq_D-20">
          <mxGeometry relative="1" as="geometry">
            <mxPoint x="355" y="370" as="targetPoint" />
            <Array as="points">
              <mxPoint x="515" y="360" />
              <mxPoint x="370" y="360" />
              <mxPoint x="370" y="370" />
            </Array>
          </mxGeometry>
        </mxCell>
        <mxCell id="YBW0V-wdgdNaUi1uGq_D-20" value="Atualização do acionamento do atuador (solenoide)" style="ellipse;whiteSpace=wrap;html=1;fillColor=#dae8fc;strokeColor=#6c8ebf;" vertex="1" parent="YBW0V-wdgdNaUi1uGq_D-1">
          <mxGeometry x="515" y="340" width="120" height="80" as="geometry" />
        </mxCell>
        <mxCell id="YBW0V-wdgdNaUi1uGq_D-23" style="edgeStyle=orthogonalEdgeStyle;rounded=0;orthogonalLoop=1;jettySize=auto;html=1;entryX=0.5;entryY=1;entryDx=0;entryDy=0;" edge="1" parent="YBW0V-wdgdNaUi1uGq_D-1" source="YBW0V-wdgdNaUi1uGq_D-24" target="YBW0V-wdgdNaUi1uGq_D-3">
          <mxGeometry relative="1" as="geometry" />
        </mxCell>
        <mxCell id="YBW0V-wdgdNaUi1uGq_D-24" value="Reset" style="ellipse;whiteSpace=wrap;html=1;fillColor=#dae8fc;strokeColor=#6c8ebf;" vertex="1" parent="YBW0V-wdgdNaUi1uGq_D-1">
          <mxGeometry x="145" y="220" width="120" height="80" as="geometry" />
        </mxCell>
        <mxCell id="YBW0V-wdgdNaUi1uGq_D-25" value="&lt;font style=&quot;font-size: 30px;&quot;&gt;Diagrama fluxo do programa do Sistema de atuação remota&lt;/font&gt;" style="text;html=1;align=center;verticalAlign=middle;resizable=0;points=[];autosize=1;strokeColor=none;fillColor=none;" vertex="1" parent="YBW0V-wdgdNaUi1uGq_D-1">
          <mxGeometry x="4" y="10" width="820" height="50" as="geometry" />
        </mxCell>
        <mxCell id="YBW0V-wdgdNaUi1uGq_D-26" value="Loop infinito" style="text;html=1;align=center;verticalAlign=middle;resizable=0;points=[];autosize=1;strokeColor=none;fillColor=none;" vertex="1" parent="YBW0V-wdgdNaUi1uGq_D-1">
          <mxGeometry x="390" y="395" width="90" height="30" as="geometry" />
        </mxCell>
      </root>
    </mxGraphModel>
  </diagram>
  <diagram name="Cópia do Cópia do Página-1" id="1HrB-kPO4gpxCQQz9iWB">
    <mxGraphModel dx="1750" dy="890" grid="1" gridSize="10" guides="1" tooltips="1" connect="1" arrows="1" fold="1" page="1" pageScale="1" pageWidth="827" pageHeight="1169" math="0" shadow="0">
      <root>
        <mxCell id="Xf-qQiHCkuzrevDNIFn2-0" />
        <mxCell id="Xf-qQiHCkuzrevDNIFn2-1" parent="Xf-qQiHCkuzrevDNIFn2-0" />
        <mxCell id="0NsJiE6XuvuYG7C_aNbN-24" value="" style="ellipse;whiteSpace=wrap;html=1;fillColor=none;strokeColor=#6c8ebf;" vertex="1" parent="Xf-qQiHCkuzrevDNIFn2-1">
          <mxGeometry x="140" y="190" width="680" height="580" as="geometry" />
        </mxCell>
        <mxCell id="Xf-qQiHCkuzrevDNIFn2-2" style="edgeStyle=orthogonalEdgeStyle;rounded=0;orthogonalLoop=1;jettySize=auto;html=1;entryX=0;entryY=0.5;entryDx=0;entryDy=0;fillColor=#dae8fc;strokeColor=#000000;" edge="1" parent="Xf-qQiHCkuzrevDNIFn2-1" source="Xf-qQiHCkuzrevDNIFn2-3" target="Xf-qQiHCkuzrevDNIFn2-5">
          <mxGeometry relative="1" as="geometry" />
        </mxCell>
        <mxCell id="Xf-qQiHCkuzrevDNIFn2-3" value="Inicio" style="ellipse;whiteSpace=wrap;html=1;fillColor=#dae8fc;strokeColor=#6c8ebf;" vertex="1" parent="Xf-qQiHCkuzrevDNIFn2-1">
          <mxGeometry x="126" y="70" width="120" height="80" as="geometry" />
        </mxCell>
        <mxCell id="Xf-qQiHCkuzrevDNIFn2-5" value="Configuração do canal de transmissão&lt;br&gt;(canal fixo)" style="ellipse;whiteSpace=wrap;html=1;fillColor=#dae8fc;strokeColor=#6c8ebf;" vertex="1" parent="Xf-qQiHCkuzrevDNIFn2-1">
          <mxGeometry x="306" y="70" width="120" height="80" as="geometry" />
        </mxCell>
        <mxCell id="0NsJiE6XuvuYG7C_aNbN-21" style="edgeStyle=orthogonalEdgeStyle;rounded=0;orthogonalLoop=1;jettySize=auto;html=1;entryX=0.5;entryY=0;entryDx=0;entryDy=0;curved=1;" edge="1" parent="Xf-qQiHCkuzrevDNIFn2-1" source="Xf-qQiHCkuzrevDNIFn2-7" target="0NsJiE6XuvuYG7C_aNbN-19">
          <mxGeometry relative="1" as="geometry" />
        </mxCell>
        <mxCell id="Xf-qQiHCkuzrevDNIFn2-7" value="Configuração do cartão de momória" style="ellipse;whiteSpace=wrap;html=1;fillColor=#dae8fc;strokeColor=#6c8ebf;" vertex="1" parent="Xf-qQiHCkuzrevDNIFn2-1">
          <mxGeometry x="231" y="160" width="120" height="80" as="geometry" />
        </mxCell>
        <mxCell id="0NsJiE6XuvuYG7C_aNbN-3" style="edgeStyle=orthogonalEdgeStyle;rounded=0;orthogonalLoop=1;jettySize=auto;html=1;curved=1;" edge="1" parent="Xf-qQiHCkuzrevDNIFn2-1" source="Xf-qQiHCkuzrevDNIFn2-9" target="Xf-qQiHCkuzrevDNIFn2-11">
          <mxGeometry relative="1" as="geometry" />
        </mxCell>
        <mxCell id="Xf-qQiHCkuzrevDNIFn2-9" value="Leitura dos sensores analógicos" style="ellipse;whiteSpace=wrap;html=1;fillColor=#dae8fc;strokeColor=#6c8ebf;" vertex="1" parent="Xf-qQiHCkuzrevDNIFn2-1">
          <mxGeometry x="170" y="430" width="120" height="80" as="geometry" />
        </mxCell>
        <mxCell id="Xf-qQiHCkuzrevDNIFn2-10" style="edgeStyle=orthogonalEdgeStyle;rounded=0;orthogonalLoop=1;jettySize=auto;html=1;entryX=0;entryY=0.5;entryDx=0;entryDy=0;curved=1;exitX=0.773;exitY=0.915;exitDx=0;exitDy=0;exitPerimeter=0;" edge="1" parent="Xf-qQiHCkuzrevDNIFn2-1" source="Xf-qQiHCkuzrevDNIFn2-11" target="Xf-qQiHCkuzrevDNIFn2-13">
          <mxGeometry relative="1" as="geometry">
            <Array as="points">
              <mxPoint x="260" y="623" />
              <mxPoint x="260" y="655" />
              <mxPoint x="310" y="655" />
            </Array>
          </mxGeometry>
        </mxCell>
        <mxCell id="Xf-qQiHCkuzrevDNIFn2-11" value="Armazenamento direto na momória via DMA dos sensores analógicos" style="ellipse;whiteSpace=wrap;html=1;fillColor=#dae8fc;strokeColor=#6c8ebf;" vertex="1" parent="Xf-qQiHCkuzrevDNIFn2-1">
          <mxGeometry x="170" y="550" width="120" height="80" as="geometry" />
        </mxCell>
        <mxCell id="0NsJiE6XuvuYG7C_aNbN-6" style="edgeStyle=orthogonalEdgeStyle;rounded=0;orthogonalLoop=1;jettySize=auto;html=1;entryX=0;entryY=0.5;entryDx=0;entryDy=0;curved=1;" edge="1" parent="Xf-qQiHCkuzrevDNIFn2-1" source="Xf-qQiHCkuzrevDNIFn2-13" target="0NsJiE6XuvuYG7C_aNbN-4">
          <mxGeometry relative="1" as="geometry" />
        </mxCell>
        <mxCell id="Xf-qQiHCkuzrevDNIFn2-13" value="Tratamento dos dados dos sensores analógicos e armazenamento em variáveis" style="ellipse;whiteSpace=wrap;html=1;fillColor=#dae8fc;strokeColor=#6c8ebf;" vertex="1" parent="Xf-qQiHCkuzrevDNIFn2-1">
          <mxGeometry x="310" y="640" width="120" height="80" as="geometry" />
        </mxCell>
        <mxCell id="Xf-qQiHCkuzrevDNIFn2-14" style="edgeStyle=orthogonalEdgeStyle;rounded=0;orthogonalLoop=1;jettySize=auto;html=1;entryX=0.5;entryY=1;entryDx=0;entryDy=0;curved=1;" edge="1" parent="Xf-qQiHCkuzrevDNIFn2-1" source="Xf-qQiHCkuzrevDNIFn2-15" target="Xf-qQiHCkuzrevDNIFn2-3">
          <mxGeometry relative="1" as="geometry">
            <Array as="points">
              <mxPoint x="80" y="150" />
            </Array>
          </mxGeometry>
        </mxCell>
        <mxCell id="Xf-qQiHCkuzrevDNIFn2-15" value="Reset" style="ellipse;whiteSpace=wrap;html=1;fillColor=#dae8fc;strokeColor=#6c8ebf;" vertex="1" parent="Xf-qQiHCkuzrevDNIFn2-1">
          <mxGeometry x="20" y="170" width="120" height="80" as="geometry" />
        </mxCell>
        <mxCell id="Xf-qQiHCkuzrevDNIFn2-16" value="&lt;font style=&quot;font-size: 30px;&quot;&gt;Diagrama fluxo do programa da Telemetria embarcada&lt;/font&gt;" style="text;html=1;align=center;verticalAlign=middle;resizable=0;points=[];autosize=1;strokeColor=none;fillColor=none;" vertex="1" parent="Xf-qQiHCkuzrevDNIFn2-1">
          <mxGeometry x="39" y="10" width="750" height="50" as="geometry" />
        </mxCell>
        <mxCell id="Xf-qQiHCkuzrevDNIFn2-17" value="Loop infinito" style="text;html=1;align=center;verticalAlign=middle;resizable=0;points=[];autosize=1;strokeColor=none;fillColor=none;" vertex="1" parent="Xf-qQiHCkuzrevDNIFn2-1">
          <mxGeometry x="445" y="450" width="90" height="30" as="geometry" />
        </mxCell>
        <mxCell id="0NsJiE6XuvuYG7C_aNbN-0" value="Interrupção do Serial do GPS" style="ellipse;whiteSpace=wrap;html=1;fillColor=#dae8fc;strokeColor=#6c8ebf;" vertex="1" parent="Xf-qQiHCkuzrevDNIFn2-1">
          <mxGeometry x="6" y="300" width="120" height="80" as="geometry" />
        </mxCell>
        <mxCell id="0NsJiE6XuvuYG7C_aNbN-2" value="Interrupção externa do sensor hall de rotação" style="ellipse;whiteSpace=wrap;html=1;fillColor=#dae8fc;strokeColor=#6c8ebf;" vertex="1" parent="Xf-qQiHCkuzrevDNIFn2-1">
          <mxGeometry x="10" y="400" width="120" height="80" as="geometry" />
        </mxCell>
        <mxCell id="0NsJiE6XuvuYG7C_aNbN-8" style="edgeStyle=orthogonalEdgeStyle;rounded=0;orthogonalLoop=1;jettySize=auto;html=1;entryX=0.5;entryY=1;entryDx=0;entryDy=0;curved=1;" edge="1" parent="Xf-qQiHCkuzrevDNIFn2-1" source="0NsJiE6XuvuYG7C_aNbN-4" target="0NsJiE6XuvuYG7C_aNbN-7">
          <mxGeometry relative="1" as="geometry" />
        </mxCell>
        <mxCell id="0NsJiE6XuvuYG7C_aNbN-4" value="Cálculo da rotação e velocidade via sensor de rotação e armazenamento em variáveis" style="ellipse;whiteSpace=wrap;html=1;fillColor=#dae8fc;strokeColor=#6c8ebf;" vertex="1" parent="Xf-qQiHCkuzrevDNIFn2-1">
          <mxGeometry x="480" y="640" width="120" height="80" as="geometry" />
        </mxCell>
        <mxCell id="0NsJiE6XuvuYG7C_aNbN-10" style="edgeStyle=orthogonalEdgeStyle;rounded=0;orthogonalLoop=1;jettySize=auto;html=1;curved=1;entryX=0.623;entryY=0.995;entryDx=0;entryDy=0;entryPerimeter=0;" edge="1" parent="Xf-qQiHCkuzrevDNIFn2-1" source="0NsJiE6XuvuYG7C_aNbN-7" target="0NsJiE6XuvuYG7C_aNbN-9">
          <mxGeometry relative="1" as="geometry">
            <Array as="points">
              <mxPoint x="720" y="550" />
              <mxPoint x="725" y="550" />
            </Array>
          </mxGeometry>
        </mxCell>
        <mxCell id="0NsJiE6XuvuYG7C_aNbN-7" value="Armazenamento dos dados em uma String" style="ellipse;whiteSpace=wrap;html=1;fillColor=#dae8fc;strokeColor=#6c8ebf;" vertex="1" parent="Xf-qQiHCkuzrevDNIFn2-1">
          <mxGeometry x="630" y="570" width="120" height="80" as="geometry" />
        </mxCell>
        <mxCell id="0NsJiE6XuvuYG7C_aNbN-9" value="Desabilita interrupções externa e serial" style="ellipse;whiteSpace=wrap;html=1;fillColor=#dae8fc;strokeColor=#6c8ebf;" vertex="1" parent="Xf-qQiHCkuzrevDNIFn2-1">
          <mxGeometry x="650" y="450" width="120" height="80" as="geometry" />
        </mxCell>
        <mxCell id="0NsJiE6XuvuYG7C_aNbN-14" value="Armazena string no cartão de momória" style="ellipse;whiteSpace=wrap;html=1;fillColor=#dae8fc;strokeColor=#6c8ebf;" vertex="1" parent="Xf-qQiHCkuzrevDNIFn2-1">
          <mxGeometry x="610" y="320" width="120" height="80" as="geometry" />
        </mxCell>
        <mxCell id="0NsJiE6XuvuYG7C_aNbN-16" value="Transmite sem fio via Lo-ra" style="ellipse;whiteSpace=wrap;html=1;fillColor=#dae8fc;strokeColor=#6c8ebf;" vertex="1" parent="Xf-qQiHCkuzrevDNIFn2-1">
          <mxGeometry x="490" y="220" width="120" height="80" as="geometry" />
        </mxCell>
        <mxCell id="0NsJiE6XuvuYG7C_aNbN-22" style="edgeStyle=orthogonalEdgeStyle;rounded=0;orthogonalLoop=1;jettySize=auto;html=1;entryX=0.5;entryY=0;entryDx=0;entryDy=0;curved=1;" edge="1" parent="Xf-qQiHCkuzrevDNIFn2-1" source="0NsJiE6XuvuYG7C_aNbN-19" target="Xf-qQiHCkuzrevDNIFn2-9">
          <mxGeometry relative="1" as="geometry">
            <Array as="points">
              <mxPoint x="260" y="400" />
              <mxPoint x="230" y="400" />
            </Array>
          </mxGeometry>
        </mxCell>
        <mxCell id="0NsJiE6XuvuYG7C_aNbN-19" value="Habilita interrupções externa e serial" style="ellipse;whiteSpace=wrap;html=1;fillColor=#dae8fc;strokeColor=#6c8ebf;" vertex="1" parent="Xf-qQiHCkuzrevDNIFn2-1">
          <mxGeometry x="270" y="270" width="120" height="80" as="geometry" />
        </mxCell>
        <mxCell id="0NsJiE6XuvuYG7C_aNbN-20" style="edgeStyle=orthogonalEdgeStyle;rounded=0;orthogonalLoop=1;jettySize=auto;html=1;entryX=1;entryY=0.25;entryDx=0;entryDy=0;entryPerimeter=0;curved=1;" edge="1" parent="Xf-qQiHCkuzrevDNIFn2-1" source="Xf-qQiHCkuzrevDNIFn2-5" target="Xf-qQiHCkuzrevDNIFn2-7">
          <mxGeometry relative="1" as="geometry" />
        </mxCell>
        <mxCell id="0NsJiE6XuvuYG7C_aNbN-23" style="edgeStyle=orthogonalEdgeStyle;rounded=0;orthogonalLoop=1;jettySize=auto;html=1;entryX=1.027;entryY=0.33;entryDx=0;entryDy=0;entryPerimeter=0;curved=1;" edge="1" parent="Xf-qQiHCkuzrevDNIFn2-1" source="0NsJiE6XuvuYG7C_aNbN-16" target="0NsJiE6XuvuYG7C_aNbN-19">
          <mxGeometry relative="1" as="geometry" />
        </mxCell>
        <mxCell id="0NsJiE6XuvuYG7C_aNbN-25" style="edgeStyle=orthogonalEdgeStyle;rounded=0;orthogonalLoop=1;jettySize=auto;html=1;entryX=0.072;entryY=0.246;entryDx=0;entryDy=0;entryPerimeter=0;curved=1;" edge="1" parent="Xf-qQiHCkuzrevDNIFn2-1" source="0NsJiE6XuvuYG7C_aNbN-0" target="0NsJiE6XuvuYG7C_aNbN-24">
          <mxGeometry relative="1" as="geometry" />
        </mxCell>
        <mxCell id="0NsJiE6XuvuYG7C_aNbN-26" style="edgeStyle=orthogonalEdgeStyle;rounded=0;orthogonalLoop=1;jettySize=auto;html=1;entryX=0.025;entryY=0.351;entryDx=0;entryDy=0;entryPerimeter=0;curved=1;" edge="1" parent="Xf-qQiHCkuzrevDNIFn2-1" source="0NsJiE6XuvuYG7C_aNbN-2" target="0NsJiE6XuvuYG7C_aNbN-24">
          <mxGeometry relative="1" as="geometry">
            <Array as="points">
              <mxPoint x="110" y="394" />
            </Array>
          </mxGeometry>
        </mxCell>
        <mxCell id="2154F7wMHC9uhjKkon1E-0" style="edgeStyle=orthogonalEdgeStyle;rounded=0;orthogonalLoop=1;jettySize=auto;html=1;entryX=0.727;entryY=0.926;entryDx=0;entryDy=0;entryPerimeter=0;curved=1;" edge="1" parent="Xf-qQiHCkuzrevDNIFn2-1" source="0NsJiE6XuvuYG7C_aNbN-9" target="0NsJiE6XuvuYG7C_aNbN-14">
          <mxGeometry relative="1" as="geometry" />
        </mxCell>
        <mxCell id="2154F7wMHC9uhjKkon1E-1" style="edgeStyle=orthogonalEdgeStyle;rounded=0;orthogonalLoop=1;jettySize=auto;html=1;entryX=0.982;entryY=0.671;entryDx=0;entryDy=0;entryPerimeter=0;curved=1;" edge="1" parent="Xf-qQiHCkuzrevDNIFn2-1" source="0NsJiE6XuvuYG7C_aNbN-14" target="0NsJiE6XuvuYG7C_aNbN-16">
          <mxGeometry relative="1" as="geometry" />
        </mxCell>
      </root>
    </mxGraphModel>
  </diagram>
  <diagram name="Cópia do Cópia do Cópia do Página-1" id="z_f2yl3eKDVwgRaK-7nC">
    <mxGraphModel dx="1050" dy="534" grid="1" gridSize="10" guides="1" tooltips="1" connect="1" arrows="1" fold="1" page="1" pageScale="1" pageWidth="827" pageHeight="1169" math="0" shadow="0">
      <root>
        <mxCell id="NLogt-IbKeaQTRvB_dWX-0" />
        <mxCell id="NLogt-IbKeaQTRvB_dWX-1" parent="NLogt-IbKeaQTRvB_dWX-0" />
        <mxCell id="NLogt-IbKeaQTRvB_dWX-2" style="edgeStyle=orthogonalEdgeStyle;rounded=0;orthogonalLoop=1;jettySize=auto;html=1;entryX=0;entryY=0.5;entryDx=0;entryDy=0;fillColor=#dae8fc;strokeColor=#000000;" edge="1" parent="NLogt-IbKeaQTRvB_dWX-1" source="NLogt-IbKeaQTRvB_dWX-3" target="NLogt-IbKeaQTRvB_dWX-5">
          <mxGeometry relative="1" as="geometry" />
        </mxCell>
        <mxCell id="NLogt-IbKeaQTRvB_dWX-3" value="Inicio" style="ellipse;whiteSpace=wrap;html=1;fillColor=#dae8fc;strokeColor=#6c8ebf;" vertex="1" parent="NLogt-IbKeaQTRvB_dWX-1">
          <mxGeometry x="145" y="90" width="120" height="80" as="geometry" />
        </mxCell>
        <mxCell id="NLogt-IbKeaQTRvB_dWX-4" style="edgeStyle=orthogonalEdgeStyle;rounded=0;orthogonalLoop=1;jettySize=auto;html=1;" edge="1" parent="NLogt-IbKeaQTRvB_dWX-1" source="NLogt-IbKeaQTRvB_dWX-5">
          <mxGeometry relative="1" as="geometry">
            <mxPoint x="385" y="220" as="targetPoint" />
          </mxGeometry>
        </mxCell>
        <mxCell id="NLogt-IbKeaQTRvB_dWX-5" value="Configuração do canal de transmissão&lt;br&gt;(canal fixo)" style="ellipse;whiteSpace=wrap;html=1;fillColor=#dae8fc;strokeColor=#6c8ebf;" vertex="1" parent="NLogt-IbKeaQTRvB_dWX-1">
          <mxGeometry x="325" y="90" width="120" height="80" as="geometry" />
        </mxCell>
        <mxCell id="NLogt-IbKeaQTRvB_dWX-6" style="edgeStyle=orthogonalEdgeStyle;rounded=0;orthogonalLoop=1;jettySize=auto;html=1;entryX=0.5;entryY=0;entryDx=0;entryDy=0;curved=1;" edge="1" parent="NLogt-IbKeaQTRvB_dWX-1" source="NLogt-IbKeaQTRvB_dWX-7" target="NLogt-IbKeaQTRvB_dWX-9">
          <mxGeometry relative="1" as="geometry" />
        </mxCell>
        <mxCell id="NLogt-IbKeaQTRvB_dWX-7" value="Inicio da recepção dos dados" style="ellipse;whiteSpace=wrap;html=1;fillColor=#dae8fc;strokeColor=#6c8ebf;" vertex="1" parent="NLogt-IbKeaQTRvB_dWX-1">
          <mxGeometry x="325" y="220" width="120" height="80" as="geometry" />
        </mxCell>
        <mxCell id="NLogt-IbKeaQTRvB_dWX-8" style="edgeStyle=orthogonalEdgeStyle;rounded=0;orthogonalLoop=1;jettySize=auto;html=1;curved=1;entryX=0.258;entryY=0.054;entryDx=0;entryDy=0;entryPerimeter=0;" edge="1" parent="NLogt-IbKeaQTRvB_dWX-1" source="NLogt-IbKeaQTRvB_dWX-9" target="NLogt-IbKeaQTRvB_dWX-11">
          <mxGeometry relative="1" as="geometry">
            <Array as="points">
              <mxPoint x="290" y="420" />
              <mxPoint x="301" y="420" />
            </Array>
          </mxGeometry>
        </mxCell>
        <mxCell id="NLogt-IbKeaQTRvB_dWX-9" value="Tratamento da string recebida" style="ellipse;whiteSpace=wrap;html=1;fillColor=#dae8fc;strokeColor=#6c8ebf;" vertex="1" parent="NLogt-IbKeaQTRvB_dWX-1">
          <mxGeometry x="230" y="330" width="120" height="80" as="geometry" />
        </mxCell>
        <mxCell id="NLogt-IbKeaQTRvB_dWX-10" style="edgeStyle=orthogonalEdgeStyle;rounded=0;orthogonalLoop=1;jettySize=auto;html=1;entryX=0.5;entryY=1;entryDx=0;entryDy=0;curved=1;" edge="1" parent="NLogt-IbKeaQTRvB_dWX-1" source="NLogt-IbKeaQTRvB_dWX-11" target="NLogt-IbKeaQTRvB_dWX-13">
          <mxGeometry relative="1" as="geometry" />
        </mxCell>
        <mxCell id="NLogt-IbKeaQTRvB_dWX-11" value="Atualização das variáveis" style="ellipse;whiteSpace=wrap;html=1;fillColor=#dae8fc;strokeColor=#6c8ebf;" vertex="1" parent="NLogt-IbKeaQTRvB_dWX-1">
          <mxGeometry x="270" y="440" width="120" height="80" as="geometry" />
        </mxCell>
        <mxCell id="NLogt-IbKeaQTRvB_dWX-12" style="edgeStyle=orthogonalEdgeStyle;rounded=0;orthogonalLoop=1;jettySize=auto;html=1;curved=1;exitX=0;exitY=0.5;exitDx=0;exitDy=0;" edge="1" parent="NLogt-IbKeaQTRvB_dWX-1" source="NLogt-IbKeaQTRvB_dWX-13">
          <mxGeometry relative="1" as="geometry">
            <mxPoint x="355" y="370" as="targetPoint" />
            <Array as="points">
              <mxPoint x="515" y="360" />
              <mxPoint x="370" y="360" />
              <mxPoint x="370" y="370" />
            </Array>
          </mxGeometry>
        </mxCell>
        <mxCell id="NLogt-IbKeaQTRvB_dWX-13" value="Envio das variáveis via Serial" style="ellipse;whiteSpace=wrap;html=1;fillColor=#dae8fc;strokeColor=#6c8ebf;" vertex="1" parent="NLogt-IbKeaQTRvB_dWX-1">
          <mxGeometry x="515" y="340" width="120" height="80" as="geometry" />
        </mxCell>
        <mxCell id="NLogt-IbKeaQTRvB_dWX-14" style="edgeStyle=orthogonalEdgeStyle;rounded=0;orthogonalLoop=1;jettySize=auto;html=1;entryX=0.5;entryY=1;entryDx=0;entryDy=0;" edge="1" parent="NLogt-IbKeaQTRvB_dWX-1" source="NLogt-IbKeaQTRvB_dWX-15" target="NLogt-IbKeaQTRvB_dWX-3">
          <mxGeometry relative="1" as="geometry" />
        </mxCell>
        <mxCell id="NLogt-IbKeaQTRvB_dWX-15" value="Reset" style="ellipse;whiteSpace=wrap;html=1;fillColor=#dae8fc;strokeColor=#6c8ebf;" vertex="1" parent="NLogt-IbKeaQTRvB_dWX-1">
          <mxGeometry x="145" y="220" width="120" height="80" as="geometry" />
        </mxCell>
        <mxCell id="NLogt-IbKeaQTRvB_dWX-16" value="&lt;font style=&quot;font-size: 30px;&quot;&gt;Diagrama fluxo do programa da Telemetria - Receptor&lt;/font&gt;" style="text;html=1;align=center;verticalAlign=middle;resizable=0;points=[];autosize=1;strokeColor=none;fillColor=none;" vertex="1" parent="NLogt-IbKeaQTRvB_dWX-1">
          <mxGeometry x="44" y="10" width="740" height="50" as="geometry" />
        </mxCell>
        <mxCell id="NLogt-IbKeaQTRvB_dWX-17" value="Loop infinito" style="text;html=1;align=center;verticalAlign=middle;resizable=0;points=[];autosize=1;strokeColor=none;fillColor=none;" vertex="1" parent="NLogt-IbKeaQTRvB_dWX-1">
          <mxGeometry x="390" y="395" width="90" height="30" as="geometry" />
        </mxCell>
      </root>
    </mxGraphModel>
  </diagram>
  <diagram name="Cópia do Cópia do Cópia do Cópia do Página-1" id="RJLK4wm0ygWD_aM9yLXf">
    <mxGraphModel dx="1167" dy="593" grid="1" gridSize="10" guides="1" tooltips="1" connect="1" arrows="1" fold="1" page="1" pageScale="1" pageWidth="827" pageHeight="1169" math="0" shadow="0">
      <root>
        <mxCell id="AQErEHTaJ7vVPElfEV-V-0" />
        <mxCell id="AQErEHTaJ7vVPElfEV-V-1" parent="AQErEHTaJ7vVPElfEV-V-0" />
        <mxCell id="AQErEHTaJ7vVPElfEV-V-2" style="edgeStyle=orthogonalEdgeStyle;rounded=0;orthogonalLoop=1;jettySize=auto;html=1;entryX=0;entryY=0.5;entryDx=0;entryDy=0;fillColor=#ffff88;strokeColor=#36393d;" edge="1" parent="AQErEHTaJ7vVPElfEV-V-1" source="AQErEHTaJ7vVPElfEV-V-3" target="AQErEHTaJ7vVPElfEV-V-5">
          <mxGeometry relative="1" as="geometry" />
        </mxCell>
        <mxCell id="AQErEHTaJ7vVPElfEV-V-3" value="Arduino" style="ellipse;whiteSpace=wrap;html=1;fillColor=#ffff88;strokeColor=#36393d;" vertex="1" parent="AQErEHTaJ7vVPElfEV-V-1">
          <mxGeometry x="145" y="90" width="120" height="80" as="geometry" />
        </mxCell>
        <mxCell id="AQErEHTaJ7vVPElfEV-V-4" style="edgeStyle=orthogonalEdgeStyle;rounded=0;orthogonalLoop=1;jettySize=auto;html=1;fillColor=#ffff88;strokeColor=#36393d;" edge="1" parent="AQErEHTaJ7vVPElfEV-V-1" source="AQErEHTaJ7vVPElfEV-V-5">
          <mxGeometry relative="1" as="geometry">
            <mxPoint x="385" y="220" as="targetPoint" />
          </mxGeometry>
        </mxCell>
        <mxCell id="AQErEHTaJ7vVPElfEV-V-5" value="Configuração do adaptador Serial" style="ellipse;whiteSpace=wrap;html=1;fillColor=#ffff88;strokeColor=#36393d;" vertex="1" parent="AQErEHTaJ7vVPElfEV-V-1">
          <mxGeometry x="325" y="90" width="120" height="80" as="geometry" />
        </mxCell>
        <mxCell id="AQErEHTaJ7vVPElfEV-V-6" style="edgeStyle=orthogonalEdgeStyle;rounded=0;orthogonalLoop=1;jettySize=auto;html=1;entryX=0.5;entryY=0;entryDx=0;entryDy=0;curved=1;fillColor=#ffff88;strokeColor=#36393d;" edge="1" parent="AQErEHTaJ7vVPElfEV-V-1" source="AQErEHTaJ7vVPElfEV-V-7" target="AQErEHTaJ7vVPElfEV-V-9">
          <mxGeometry relative="1" as="geometry" />
        </mxCell>
        <mxCell id="AQErEHTaJ7vVPElfEV-V-7" value="Inicio da recepção dos dados" style="ellipse;whiteSpace=wrap;html=1;fillColor=#ffff88;strokeColor=#36393d;" vertex="1" parent="AQErEHTaJ7vVPElfEV-V-1">
          <mxGeometry x="325" y="220" width="120" height="80" as="geometry" />
        </mxCell>
        <mxCell id="AQErEHTaJ7vVPElfEV-V-9" value="Exibição de dados&amp;nbsp; numéricos e plots" style="ellipse;whiteSpace=wrap;html=1;fillColor=#ffff88;strokeColor=#36393d;" vertex="1" parent="AQErEHTaJ7vVPElfEV-V-1">
          <mxGeometry x="325" y="390" width="120" height="80" as="geometry" />
        </mxCell>
        <mxCell id="AQErEHTaJ7vVPElfEV-V-16" value="&lt;font style=&quot;font-size: 30px;&quot;&gt;Diagrama da configuração do receptor da Telemetria&lt;br&gt;Exibição dos dados&lt;/font&gt;" style="text;html=1;align=center;verticalAlign=middle;resizable=0;points=[];autosize=1;strokeColor=none;fillColor=none;" vertex="1" parent="AQErEHTaJ7vVPElfEV-V-1">
          <mxGeometry x="54" width="720" height="90" as="geometry" />
        </mxCell>
      </root>
    </mxGraphModel>
  </diagram>
</mxfile>
